<svg width="20" height="20" viewBox="0 0 20 20" fill="none" xmlns="http://www.w3.org/2000/svg">
<path d="M12.4999 14.1667H16.6666L15.4958 12.9958C15.3385 12.8386 15.2138 12.6519 15.1287 12.4464C15.0437 12.2409 14.9999 12.0207 14.9999 11.7983V9.16667C15 8.13245 14.6796 7.12362 14.0826 6.27907C13.4857 5.43453 12.6416 4.7958 11.6666 4.45083V4.16667C11.6666 3.72464 11.491 3.30072 11.1784 2.98816C10.8659 2.67559 10.4419 2.5 9.99992 2.5C9.55789 2.5 9.13397 2.67559 8.82141 2.98816C8.50885 3.30072 8.33325 3.72464 8.33325 4.16667V4.45083C6.39159 5.1375 4.99992 6.99 4.99992 9.16667V11.7992C4.99992 12.2475 4.82159 12.6783 4.50409 12.9958L3.33325 14.1667H7.49992M12.4999 14.1667H7.49992M12.4999 14.1667V15C12.4999 15.663 12.2365 16.2989 11.7677 16.7678C11.2988 17.2366 10.663 17.5 9.99992 17.5C9.33688 17.5 8.70099 17.2366 8.23215 16.7678C7.76331 16.2989 7.49992 15.663 7.49992 15V14.1667" stroke="#212121" stroke-width="2" stroke-linecap="round" stroke-linejoin="round"/>
</svg>
