<svg width="16" height="18" viewBox="0 0 16 18" fill="none" xmlns="http://www.w3.org/2000/svg">
<path d="M10.5002 13.1667H14.6668L13.496 11.9958C13.3388 11.8386 13.214 11.6519 13.129 11.4464C13.0439 11.2409 13.0001 11.0207 13.0002 10.7983V8.16667C13.0003 7.13245 12.6798 6.12362 12.0829 5.27907C11.4859 4.43453 10.6418 3.7958 9.66683 3.45083V3.16667C9.66683 2.72464 9.49123 2.30072 9.17867 1.98816C8.86611 1.67559 8.44219 1.5 8.00016 1.5C7.55814 1.5 7.13421 1.67559 6.82165 1.98816C6.50909 2.30072 6.3335 2.72464 6.3335 3.16667V3.45083C4.39183 4.1375 3.00016 5.99 3.00016 8.16667V10.7992C3.00016 11.2475 2.82183 11.6783 2.50433 11.9958L1.3335 13.1667H5.50016M10.5002 13.1667H5.50016M10.5002 13.1667V14C10.5002 14.663 10.2368 15.2989 9.76793 15.7678C9.29909 16.2366 8.6632 16.5 8.00016 16.5C7.33712 16.5 6.70124 16.2366 6.2324 15.7678C5.76355 15.2989 5.50016 14.663 5.50016 14V13.1667" stroke="#212121" stroke-width="2" stroke-linecap="round" stroke-linejoin="round"/>
</svg>
