<svg width="52" height="40" viewBox="0 0 52 40" fill="none" xmlns="http://www.w3.org/2000/svg">
<rect x="0.5" y="0.5" width="51" height="39" rx="7.5" stroke="#607D8B"/>
<path d="M18.7441 12.7441C18.5878 12.9004 18.5 13.1123 18.5 13.3333V15.4883C18.5 15.7093 18.5879 15.9213 18.7442 16.0775L24.0892 21.4225C24.2455 21.5787 24.3333 21.7907 24.3333 22.0117V27.5L27.6667 24.1667V22.0117C27.6667 21.7907 27.7545 21.5787 27.9108 21.4225L33.2558 16.0775C33.4121 15.9213 33.5 15.7093 33.5 15.4883V13.3333C33.5 13.1123 33.4122 12.9004 33.2559 12.7441C33.0996 12.5878 32.8877 12.5 32.6667 12.5H19.3333C19.1123 12.5 18.9004 12.5878 18.7441 12.7441Z" fill="white" stroke="#212121" stroke-width="2" stroke-linecap="round" stroke-linejoin="round"/>
</svg>
