<svg width="22" height="23" viewBox="0 0 22 23" fill="none" xmlns="http://www.w3.org/2000/svg">
<path d="M2.75 11.5L4.58333 9.66667M4.58333 9.66667L11 3.25L17.4167 9.66667M4.58333 9.66667V18.8333C4.58333 19.0764 4.67991 19.3096 4.85182 19.4815C5.02373 19.6534 5.25688 19.75 5.5 19.75H8.25M17.4167 9.66667L19.25 11.5M17.4167 9.66667V18.8333C17.4167 19.0764 17.3201 19.3096 17.1482 19.4815C16.9763 19.6534 16.7431 19.75 16.5 19.75H13.75M8.25 19.75C8.49312 19.75 8.72627 19.6534 8.89818 19.4815C9.07009 19.3096 9.16667 19.0764 9.16667 18.8333V15.1667C9.16667 14.9236 9.26324 14.6904 9.43515 14.5185C9.60706 14.3466 9.84022 14.25 10.0833 14.25H11.9167C12.1598 14.25 12.3929 14.3466 12.5648 14.5185C12.7368 14.6904 12.8333 14.9236 12.8333 15.1667V18.8333C12.8333 19.0764 12.9299 19.3096 13.1018 19.4815C13.2737 19.6534 13.5069 19.75 13.75 19.75M8.25 19.75H13.75" stroke="#607D8B" stroke-width="2" stroke-linecap="round" stroke-linejoin="round"/>
</svg>
