<svg width="313" height="92" viewBox="0 0 313 92" fill="none" xmlns="http://www.w3.org/2000/svg">
<path fill-rule="evenodd" clip-rule="evenodd" d="M177.702 12.1023C173.646 9.70084 169.101 8.11501 164.066 7.34482C164.022 3.28081 160.713 0 156.639 0C152.563 0 149.253 3.28352 149.212 7.34986C145.995 7.84868 142.961 8.68649 140.11 9.86329C135.239 11.8273 131.036 14.6949 127.5 18.4658C124.044 22.1583 121.372 26.6363 119.487 31.9C118.329 35.0844 117.527 38.5207 117.08 42.2088H113.003C109.917 42.2088 107.415 44.7107 107.415 47.7969C107.415 50.8831 109.917 53.385 113.003 53.385L200.275 53.385C203.361 53.385 205.863 50.8831 205.863 47.7969C205.863 44.7107 203.361 42.2088 200.275 42.2088H196.152C195.478 36.5025 193.963 31.3771 191.607 26.8327C188.307 20.4692 183.672 15.559 177.702 12.1023ZM180.291 42.2088C179.449 36.1984 177.486 31.3087 174.402 27.5398C170.238 22.3547 164.307 19.7621 156.608 19.7621C151.58 19.7621 147.259 20.9406 143.645 23.2974C140.031 25.5757 137.242 28.9539 135.278 33.4319C134.165 36.029 133.38 38.9547 132.924 42.2088L180.291 42.2088Z" fill="#FF8345"/>
<path fill-rule="evenodd" clip-rule="evenodd" d="M118.104 61.5625C118.926 65.0641 120.11 68.3243 121.656 71.3429C124.956 77.7065 129.591 82.6559 135.562 86.1912C141.611 89.7265 148.642 91.4942 156.656 91.4942C162.705 91.4942 168.165 90.5121 173.036 88.5481C177.985 86.5054 182.188 83.5986 185.645 79.8277C189.18 76.0567 191.891 71.5394 193.776 66.2757C194.32 64.7569 194.786 63.1859 195.173 61.5625L179.053 61.5625C178.708 62.6674 178.313 63.7278 177.867 64.7437C175.982 69.2218 173.232 72.6392 169.618 74.9961C166.083 77.3529 161.762 78.5314 156.656 78.5314C149.035 78.5314 143.104 75.8996 138.861 70.6359C136.809 68.0895 135.253 65.065 134.194 61.5625L118.104 61.5625Z" fill="#2A363B"/>
</svg>
