<svg width="124" height="48" viewBox="0 0 124 48" fill="none" xmlns="http://www.w3.org/2000/svg">
<path d="M111.187 41.5572C110.659 41.5572 110.226 41.4186 109.889 41.1415C109.553 40.8874 109.348 40.541 109.276 40.1022C109.228 39.6634 109.312 39.2015 109.529 38.7165L111.981 33.4856V35.287L105.417 20.7027C105.201 20.1946 105.129 19.7212 105.201 19.2824C105.273 18.8436 105.49 18.4971 105.85 18.2431C106.235 17.966 106.752 17.8274 107.401 17.8274C107.954 17.8274 108.399 17.9544 108.735 18.2085C109.072 18.4394 109.372 18.8897 109.637 19.5595L114.505 31.2338H113.423L118.4 19.5248C118.664 18.8782 118.977 18.4394 119.337 18.2085C119.698 17.9544 120.179 17.8274 120.78 17.8274C121.309 17.8274 121.73 17.966 122.042 18.2431C122.355 18.4971 122.547 18.8436 122.619 19.2824C122.691 19.6981 122.607 20.16 122.367 20.668L113.604 39.8943C113.291 40.541 112.954 40.9798 112.594 41.2107C112.233 41.4417 111.764 41.5572 111.187 41.5572Z" fill="#2A363B"/>
<path d="M102.181 35.3909C100.256 35.3909 98.8056 34.8482 97.8312 33.7627C96.8568 32.6542 96.3696 31.0375 96.3696 28.9128V12.5272C96.3696 11.8112 96.5552 11.2685 96.9264 10.899C97.2976 10.5295 97.8312 10.3447 98.5272 10.3447C99.2232 10.3447 99.7568 10.5295 100.128 10.899C100.522 11.2685 100.72 11.8112 100.72 12.5272V28.705C100.72 29.7673 100.94 30.5526 101.381 31.0606C101.845 31.5687 102.494 31.8228 103.33 31.8228C103.515 31.8228 103.689 31.8228 103.852 31.8228C104.014 31.7997 104.176 31.7766 104.339 31.7535C104.664 31.7073 104.884 31.7997 105 32.0306C105.116 32.2385 105.174 32.6773 105.174 33.347C105.174 33.9244 105.058 34.3747 104.826 34.698C104.594 35.0214 104.211 35.2177 103.678 35.287C103.446 35.3101 103.202 35.3332 102.947 35.3562C102.692 35.3793 102.436 35.3909 102.181 35.3909Z" fill="#2A363B"/>
<path d="M85.4419 35.3216C84.726 35.3216 84.1717 35.1368 83.7791 34.7673C83.4096 34.3747 83.2249 33.8204 83.2249 33.1045V20.0098C83.2249 19.2939 83.4096 18.7511 83.7791 18.3816C84.1486 18.0121 84.6683 17.8274 85.338 17.8274C86.0078 17.8274 86.5274 18.0121 86.8969 18.3816C87.2664 18.7511 87.4512 19.2939 87.4512 20.0098V22.1923H87.1048C87.4281 20.8066 88.0632 19.7558 89.0101 19.0398C89.957 18.3239 91.2156 17.8966 92.786 17.7581C93.271 17.7119 93.6521 17.8389 93.9292 18.1391C94.2295 18.4163 94.4027 18.8551 94.4489 19.4555C94.4951 20.0329 94.3565 20.5063 94.0332 20.8759C93.7329 21.2223 93.271 21.4301 92.6475 21.4994L91.8854 21.5687C90.4766 21.7073 89.4142 22.1461 88.6983 22.8851C87.9824 23.601 87.6244 24.6172 87.6244 25.9336V33.1045C87.6244 33.8204 87.4396 34.3747 87.0701 34.7673C86.7006 35.1368 86.1579 35.3216 85.4419 35.3216Z" fill="#2A363B"/>
<path d="M72.7632 35.3909C70.8463 35.3909 69.1951 35.0329 67.8094 34.317C66.4237 33.6011 65.3498 32.5849 64.5877 31.2685C63.8486 29.9521 63.4791 28.3932 63.4791 26.5918C63.4791 24.8366 63.8371 23.3008 64.553 21.9844C65.2921 20.668 66.2967 19.6403 67.5669 18.9013C68.8602 18.1392 70.3267 17.7581 71.9664 17.7581C73.1673 17.7581 74.2412 17.9544 75.1881 18.347C76.1581 18.7396 76.978 19.3055 77.6477 20.0445C78.3405 20.7835 78.8602 21.6842 79.2066 22.7466C79.5761 23.7858 79.7609 24.9637 79.7609 26.28C79.7609 26.6958 79.6107 27.0191 79.3105 27.25C79.0334 27.4579 78.6292 27.5618 78.098 27.5618H66.978V25.0676H76.7124L76.1581 25.5872C76.1581 24.5249 75.9964 23.6357 75.6731 22.9198C75.3729 22.2038 74.9225 21.6611 74.3221 21.2916C73.7447 20.899 73.0172 20.7027 72.1396 20.7027C71.1696 20.7027 70.3382 20.9336 69.6454 21.3955C68.9757 21.8343 68.456 22.4694 68.0865 23.3008C67.7401 24.1091 67.5669 25.0791 67.5669 26.2108V26.4533C67.5669 28.347 68.0057 29.7673 68.8833 30.7142C69.784 31.638 71.1004 32.0999 72.8325 32.0999C73.4329 32.0999 74.1027 32.0306 74.8417 31.8921C75.6038 31.7304 76.3198 31.4648 76.9895 31.0953C77.4745 30.8181 77.9017 30.7027 78.2713 30.7489C78.6408 30.772 78.9295 30.899 79.1373 31.1299C79.3683 31.3609 79.5068 31.6496 79.553 31.996C79.5992 32.3193 79.5299 32.6542 79.3452 33.0006C79.1835 33.347 78.8948 33.6472 78.4791 33.9013C77.6708 34.4094 76.7355 34.7904 75.6731 35.0445C74.6338 35.2754 73.6639 35.3909 72.7632 35.3909Z" fill="#2A363B"/>
<path d="M50.4673 35.3909C48.9893 35.3909 47.6844 35.0329 46.5528 34.317C45.4442 33.6011 44.5782 32.5849 43.9546 31.2685C43.3311 29.929 43.0193 28.3586 43.0193 26.5572C43.0193 24.7327 43.3311 23.1738 43.9546 21.8805C44.5782 20.5641 45.4442 19.548 46.5528 18.832C47.6844 18.1161 48.9893 17.7581 50.4673 17.7581C51.8761 17.7581 53.1001 18.1045 54.1394 18.7974C55.2017 19.4902 55.9177 20.4025 56.2872 21.5341H55.9061V12.5272C55.9061 11.8112 56.0909 11.2685 56.4604 10.899C56.8299 10.5295 57.3611 10.3447 58.0539 10.3447C58.7468 10.3447 59.2779 10.5295 59.6474 10.899C60.0401 11.2685 60.2364 11.8112 60.2364 12.5272V33.1045C60.2364 33.8204 60.0516 34.3747 59.6821 34.7673C59.3126 35.1368 58.7814 35.3216 58.0885 35.3216C57.3957 35.3216 56.8645 35.1368 56.495 34.7673C56.1255 34.3747 55.9407 33.8204 55.9407 33.1045V30.4024L56.3218 31.4417C55.9754 32.6426 55.271 33.6011 54.2087 34.317C53.1463 35.0329 51.8992 35.3909 50.4673 35.3909ZM51.6798 32.0999C52.5343 32.0999 53.2849 31.892 53.9315 31.4763C54.5782 31.0606 55.0747 30.4486 55.4211 29.6403C55.7906 28.8089 55.9754 27.7812 55.9754 26.5572C55.9754 24.7096 55.5828 23.3355 54.7976 22.4348C54.0123 21.511 52.9731 21.0491 51.6798 21.0491C50.8253 21.0491 50.0747 21.257 49.4281 21.6727C48.7814 22.0653 48.2733 22.6773 47.9038 23.5087C47.5574 24.317 47.3842 25.3332 47.3842 26.5572C47.3842 28.3817 47.7768 29.7673 48.562 30.7142C49.3472 31.638 50.3865 32.0999 51.6798 32.0999Z" fill="#2A363B"/>
<path d="M32.8765 35.3216C32.1606 35.3216 31.6063 35.1368 31.2137 34.7673C30.8442 34.3747 30.6594 33.8204 30.6594 33.1045V20.0098C30.6594 19.2939 30.8442 18.7511 31.2137 18.3816C31.5832 18.0121 32.1028 17.8274 32.7726 17.8274C33.4423 17.8274 33.962 18.0121 34.3315 18.3816C34.701 18.7511 34.8857 19.2939 34.8857 20.0098V22.1923H34.5393C34.8627 20.8066 35.4978 19.7558 36.4446 19.0398C37.3915 18.3239 38.6502 17.8966 40.2206 17.7581C40.7056 17.7119 41.0867 17.8389 41.3638 18.1391C41.664 18.4163 41.8372 18.8551 41.8834 19.4555C41.9296 20.0329 41.7911 20.5063 41.4677 20.8759C41.1675 21.2223 40.7056 21.4301 40.082 21.4994L39.3199 21.5687C37.9111 21.7073 36.8488 22.1461 36.1329 22.8851C35.4169 23.601 35.059 24.6172 35.059 25.9336V33.1045C35.059 33.8204 34.8742 34.3747 34.5047 34.7673C34.1352 35.1368 33.5924 35.3216 32.8765 35.3216Z" fill="#2A363B"/>
<path fill-rule="evenodd" clip-rule="evenodd" d="M3.14343 26.592C3.38497 27.6213 3.73299 28.5797 4.18751 29.4671C5.15748 31.3378 6.52007 32.7927 8.27526 33.832C10.0536 34.8713 12.1205 35.3909 14.4762 35.3909C16.2545 35.3909 17.8595 35.1022 19.2914 34.5248C20.7464 33.9244 21.9819 33.0699 22.9981 31.9613C24.0374 30.8528 24.8341 29.5248 25.3884 27.9775C25.5483 27.531 25.6852 27.0692 25.799 26.592L21.0601 26.592C20.9589 26.9168 20.8427 27.2285 20.7117 27.5272C20.1575 28.8435 19.3492 29.8482 18.2868 30.541C17.2475 31.2338 15.9773 31.5803 14.4762 31.5803C12.236 31.5803 10.4923 30.8066 9.24524 29.2593C8.64192 28.5107 8.18454 27.6216 7.87309 26.592L3.14343 26.592Z" fill="#2A363B"/>
<path fill-rule="evenodd" clip-rule="evenodd" d="M20.6771 11.8344C19.4849 11.1284 18.1487 10.6622 16.6687 10.4358C16.6556 9.24112 15.6831 8.27667 14.4854 8.27667C13.2871 8.27667 12.3143 9.24192 12.302 10.4373C11.3565 10.5839 10.4646 10.8302 9.62635 11.1762C8.19448 11.7535 6.95891 12.5965 5.91965 13.705C4.90349 14.7905 4.11827 16.1069 3.564 17.6542C3.22359 18.5903 2.98772 19.6005 2.85637 20.6847H1.65785C0.750603 20.6847 0.0151367 21.4201 0.0151367 22.3274C0.0151368 23.2346 0.750604 23.9701 1.65785 23.9701L27.3129 23.9701C28.2201 23.9701 28.9556 23.2346 28.9556 22.3274C28.9556 21.4201 28.2201 20.6847 27.3129 20.6847H26.101C25.9029 19.0072 25.4576 17.5005 24.7649 16.1646C23.7949 14.2939 22.4323 12.8505 20.6771 11.8344ZM21.4383 20.6847C21.1907 18.9178 20.6137 17.4804 19.7072 16.3725C18.4831 14.8482 16.7395 14.0861 14.4762 14.0861C12.9982 14.0861 11.728 14.4325 10.6656 15.1253C9.60325 15.7951 8.78339 16.7882 8.20603 18.1046C7.87883 18.868 7.64821 19.7281 7.51416 20.6847L21.4383 20.6847Z" fill="#FF8345"/>
</svg>
