<svg width="84" height="32" viewBox="0 0 84 32" fill="none" xmlns="http://www.w3.org/2000/svg">
<path d="M75.3054 28.1461C74.9472 28.1461 74.6541 28.0522 74.4262 27.8645C74.1982 27.6925 74.0598 27.4578 74.0109 27.1606C73.9784 26.8634 74.0354 26.5506 74.1819 26.2221L75.8428 22.6793V23.8993L71.3975 14.0216C71.251 13.6775 71.2021 13.3569 71.251 13.0597C71.2998 12.7625 71.4464 12.5279 71.6906 12.3558C71.9511 12.1681 72.3012 12.0742 72.7409 12.0742C73.1154 12.0742 73.4166 12.1603 73.6446 12.3323C73.8725 12.4888 74.0761 12.7938 74.2552 13.2474L77.5525 21.1542H76.8197L80.1903 13.2239C80.3694 12.7859 80.5811 12.4888 80.8253 12.3323C81.0696 12.1603 81.3952 12.0742 81.8023 12.0742C82.1605 12.0742 82.4455 12.1681 82.6572 12.3558C82.8689 12.5279 82.9991 12.7625 83.048 13.0597C83.0968 13.3412 83.0398 13.6541 82.877 13.9982L76.9419 27.0199C76.7302 27.4578 76.5022 27.755 76.258 27.9114C76.0137 28.0679 75.6962 28.1461 75.3054 28.1461Z" fill="#2A363B"/>
<path d="M69.2056 23.9697C67.9015 23.9697 66.9194 23.6022 66.2595 22.867C65.5995 22.1162 65.2695 21.0213 65.2695 19.5822V8.48449C65.2695 7.99959 65.3952 7.63201 65.6466 7.38175C65.8981 7.13148 66.2595 7.00635 66.7308 7.00635C67.2022 7.00635 67.5636 7.13148 67.815 7.38175C68.0822 7.63201 68.2157 7.99959 68.2157 8.48449V19.4415C68.2157 20.161 68.365 20.6928 68.6635 21.0369C68.9778 21.381 69.4178 21.5531 69.9834 21.5531C70.1091 21.5531 70.227 21.5531 70.337 21.5531C70.447 21.5375 70.557 21.5218 70.6669 21.5062C70.8869 21.4749 71.0362 21.5375 71.1148 21.6939C71.1933 21.8346 71.2326 22.1318 71.2326 22.5854C71.2326 22.9765 71.1541 23.2815 70.9969 23.5005C70.8398 23.7195 70.5805 23.8524 70.2191 23.8993C70.062 23.915 69.897 23.9306 69.7242 23.9463C69.5513 23.9619 69.3785 23.9697 69.2056 23.9697Z" fill="#2A363B"/>
<path d="M57.8683 23.9228C57.3834 23.9228 57.008 23.7977 56.7421 23.5474C56.4918 23.2815 56.3667 22.9061 56.3667 22.4212V13.5524C56.3667 13.0675 56.4918 12.6999 56.7421 12.4497C56.9924 12.1994 57.3443 12.0743 57.7979 12.0743C58.2515 12.0743 58.6035 12.1994 58.8537 12.4497C59.104 12.6999 59.2291 13.0675 59.2291 13.5524V15.0305H58.9945C59.2135 14.092 59.6436 13.3803 60.2849 12.8955C60.9262 12.4106 61.7787 12.1212 62.8424 12.0273C63.1708 11.9961 63.4289 12.0821 63.6166 12.2854C63.82 12.4731 63.9373 12.7703 63.9686 13.177C63.9998 13.568 63.906 13.8887 63.687 14.139C63.4837 14.3736 63.1708 14.5144 62.7485 14.5613L62.2323 14.6082C61.2782 14.7021 60.5587 14.9993 60.0738 15.4998C59.5889 15.9847 59.3464 16.6729 59.3464 17.5645V22.4212C59.3464 22.9061 59.2213 23.2815 58.971 23.5474C58.7208 23.7977 58.3532 23.9228 57.8683 23.9228Z" fill="#2A363B"/>
<path d="M49.2814 23.9697C47.9831 23.9697 46.8647 23.7273 45.9262 23.2424C44.9877 22.7575 44.2604 22.0693 43.7442 21.1777C43.2437 20.2861 42.9934 19.2303 42.9934 18.0103C42.9934 16.8215 43.2359 15.7813 43.7207 14.8897C44.2213 13.9982 44.9017 13.3021 45.762 12.8016C46.6379 12.2854 47.6312 12.0273 48.7417 12.0273C49.5551 12.0273 50.2824 12.1603 50.9237 12.4262C51.5807 12.6921 52.136 13.0753 52.5896 13.5758C53.0588 14.0764 53.4108 14.6864 53.6454 15.4059C53.8956 16.1098 54.0208 16.9075 54.0208 17.7991C54.0208 18.0806 53.9191 18.2996 53.7158 18.456C53.5281 18.5968 53.2543 18.6672 52.8946 18.6672H45.3631V16.9779H51.9561L51.5807 17.3298C51.5807 16.6103 51.4712 16.0081 51.2522 15.5232C51.0489 15.0383 50.7439 14.6708 50.3372 14.4205C49.9461 14.1546 49.4534 14.0216 48.859 14.0216C48.2021 14.0216 47.639 14.178 47.1697 14.4909C46.7161 14.7881 46.3642 15.2182 46.1139 15.7813C45.8793 16.3288 45.762 16.9857 45.762 17.7522V17.9164C45.762 19.199 46.0592 20.161 46.6536 20.8023C47.2636 21.428 48.1552 21.7408 49.3283 21.7408C49.735 21.7408 50.1886 21.6939 50.6891 21.6C51.2053 21.4905 51.6902 21.3106 52.1438 21.0604C52.4723 20.8727 52.7616 20.7945 53.0119 20.8257C53.2622 20.8414 53.4577 20.9274 53.5985 21.0838C53.7549 21.2403 53.8487 21.4358 53.88 21.6704C53.9113 21.8894 53.8644 22.1162 53.7392 22.3508C53.6297 22.5854 53.4342 22.7888 53.1527 22.9608C52.6052 23.305 51.9717 23.563 51.2522 23.7351C50.5483 23.8915 49.8914 23.9697 49.2814 23.9697Z" fill="#2A363B"/>
<path d="M34.1807 23.9697C33.1796 23.9697 32.2958 23.7273 31.5294 23.2424C30.7786 22.7575 30.192 22.0693 29.7697 21.1777C29.3474 20.2705 29.1362 19.2068 29.1362 17.9868C29.1362 16.7511 29.3474 15.6953 29.7697 14.8194C30.192 13.9278 30.7786 13.2396 31.5294 12.7547C32.2958 12.2698 33.1796 12.0273 34.1807 12.0273C35.1348 12.0273 35.9638 12.2619 36.6677 12.7312C37.3872 13.2004 37.8721 13.8183 38.1224 14.5847H37.8643V8.48449C37.8643 7.99959 37.9894 7.63201 38.2397 7.38175C38.4899 7.13148 38.8497 7.00635 39.319 7.00635C39.7882 7.00635 40.148 7.13148 40.3982 7.38175C40.6641 7.63201 40.7971 7.99959 40.7971 8.48449V22.4212C40.7971 22.9061 40.672 23.2815 40.4217 23.5474C40.1714 23.7977 39.8117 23.9228 39.3424 23.9228C38.8732 23.9228 38.5134 23.7977 38.2631 23.5474C38.0129 23.2815 37.8877 22.9061 37.8877 22.4212V20.5911L38.1458 21.295C37.9112 22.1084 37.4341 22.7575 36.7146 23.2424C35.9951 23.7273 35.1505 23.9697 34.1807 23.9697ZM35.0019 21.7408C35.5806 21.7408 36.089 21.6 36.5269 21.3185C36.9649 21.0369 37.3012 20.6224 37.5358 20.075C37.7861 19.5119 37.9112 18.8158 37.9112 17.9868C37.9112 16.7355 37.6453 15.8048 37.1135 15.1948C36.5817 14.5691 35.8778 14.2563 35.0019 14.2563C34.4231 14.2563 33.9148 14.397 33.4768 14.6786C33.0388 14.9445 32.6947 15.359 32.4444 15.9221C32.2098 16.4696 32.0925 17.1578 32.0925 17.9868C32.0925 19.2225 32.3584 20.161 32.8902 20.8023C33.422 21.428 34.1259 21.7408 35.0019 21.7408Z" fill="#2A363B"/>
<path d="M22.2667 23.9228C21.7818 23.9228 21.4064 23.7977 21.1405 23.5474C20.8903 23.2815 20.7651 22.9061 20.7651 22.4212V13.5524C20.7651 13.0675 20.8903 12.6999 21.1405 12.4497C21.3908 12.1994 21.7427 12.0743 22.1963 12.0743C22.65 12.0743 23.0019 12.1994 23.2522 12.4497C23.5024 12.6999 23.6276 13.0675 23.6276 13.5524V15.0305H23.3929C23.6119 14.092 24.0421 13.3803 24.6834 12.8955C25.3247 12.4106 26.1772 12.1212 27.2408 12.0273C27.5693 11.9961 27.8273 12.0821 28.015 12.2854C28.2184 12.4731 28.3357 12.7703 28.367 13.177C28.3983 13.568 28.3044 13.8887 28.0854 14.139C27.8821 14.3736 27.5693 14.5144 27.1469 14.5613L26.6308 14.6082C25.6766 14.7021 24.9571 14.9993 24.4722 15.4998C23.9873 15.9847 23.7449 16.6729 23.7449 17.5645V22.4212C23.7449 22.9061 23.6197 23.2815 23.3695 23.5474C23.1192 23.7977 22.7516 23.9228 22.2667 23.9228Z" fill="#2A363B"/>
<path fill-rule="evenodd" clip-rule="evenodd" d="M2.12891 18.0104C2.2925 18.7076 2.52821 19.3566 2.83604 19.9577C3.49299 21.2246 4.41585 22.2101 5.60462 22.9139C6.80902 23.6178 8.20895 23.9697 9.8044 23.9697C11.0088 23.9697 12.0959 23.7742 13.0657 23.3832C14.0511 22.9765 14.8879 22.3978 15.5762 21.647C16.2801 20.8962 16.8197 19.9968 17.1951 18.9488C17.3034 18.6464 17.3961 18.3336 17.4732 18.0104H14.2636C14.195 18.2304 14.1164 18.4415 14.0277 18.6438C13.6523 19.5353 13.1048 20.2157 12.3853 20.685C11.6814 21.1542 10.8211 21.3889 9.8044 21.3889C8.28716 21.3889 7.10622 20.8649 6.26157 19.8169C5.85295 19.3099 5.54317 18.7077 5.33223 18.0104H2.12891Z" fill="#2A363B"/>
<path fill-rule="evenodd" clip-rule="evenodd" d="M14.0043 8.01521C13.1968 7.53707 12.2918 7.22133 11.2894 7.06799C11.2806 6.25885 10.6219 5.60565 9.8107 5.60565C8.99913 5.60565 8.34025 6.2594 8.33195 7.06901C7.69156 7.16832 7.0875 7.33513 6.51978 7.56942C5.55 7.96047 4.71317 8.53139 4.0093 9.28219C3.32106 10.0173 2.78925 10.9089 2.41385 11.9569C2.1833 12.5909 2.02354 13.2751 1.93458 14.0094H1.12284C0.508374 14.0094 0.0102539 14.5075 0.0102539 15.122C0.0102539 15.7364 0.508376 16.2346 1.12284 16.2346L18.4986 16.2346C19.113 16.2346 19.6112 15.7364 19.6112 15.122C19.6112 14.5075 19.113 14.0094 18.4986 14.0094H17.6778C17.5437 12.8733 17.242 11.8528 16.7729 10.948C16.1159 9.68105 15.1931 8.70344 14.0043 8.01521ZM14.5198 14.0094C14.3522 12.8127 13.9613 11.8392 13.3474 11.0888C12.5184 10.0564 11.3374 9.54027 9.80453 9.54027C8.80347 9.54027 7.94318 9.7749 7.22366 10.2441C6.50414 10.6978 5.94886 11.3703 5.55782 12.2619C5.33621 12.779 5.18002 13.3615 5.08923 14.0094L14.5198 14.0094Z" fill="#FF8345"/>
</svg>
