<svg width="23" height="23" viewBox="0 0 23 23" fill="none" xmlns="http://www.w3.org/2000/svg">
<path fill-rule="evenodd" clip-rule="evenodd" d="M3.80005 6.00002C3.80005 5.70829 3.91594 5.4285 4.12223 5.22221C4.32852 5.01592 4.60831 4.90002 4.90005 4.90002H18.1C18.3918 4.90002 18.6716 5.01592 18.8779 5.22221C19.0842 5.4285 19.2 5.70829 19.2 6.00002C19.2 6.29176 19.0842 6.57155 18.8779 6.77784C18.6716 6.98413 18.3918 7.10002 18.1 7.10002H4.90005C4.60831 7.10002 4.32852 6.98413 4.12223 6.77784C3.91594 6.57155 3.80005 6.29176 3.80005 6.00002ZM3.80005 11.5C3.80005 11.2083 3.91594 10.9285 4.12223 10.7222C4.32852 10.5159 4.60831 10.4 4.90005 10.4H18.1C18.3918 10.4 18.6716 10.5159 18.8779 10.7222C19.0842 10.9285 19.2 11.2083 19.2 11.5C19.2 11.7918 19.0842 12.0716 18.8779 12.2778C18.6716 12.4841 18.3918 12.6 18.1 12.6H4.90005C4.60831 12.6 4.32852 12.4841 4.12223 12.2778C3.91594 12.0716 3.80005 11.7918 3.80005 11.5ZM3.80005 17C3.80005 16.7083 3.91594 16.4285 4.12223 16.2222C4.32852 16.0159 4.60831 15.9 4.90005 15.9H11.5C11.7918 15.9 12.0716 16.0159 12.2779 16.2222C12.4842 16.4285 12.6 16.7083 12.6 17C12.6 17.2918 12.4842 17.5716 12.2779 17.7778C12.0716 17.9841 11.7918 18.1 11.5 18.1H4.90005C4.60831 18.1 4.32852 17.9841 4.12223 17.7778C3.91594 17.5716 3.80005 17.2918 3.80005 17Z" fill="#607D8B"/>
</svg>
