<svg width="14" height="14" viewBox="0 0 14 14" fill="none" xmlns="http://www.w3.org/2000/svg">
<path fill-rule="evenodd" clip-rule="evenodd" d="M5.5999 2.80001C4.8573 2.80001 4.14511 3.09501 3.62 3.62011C3.0949 4.14521 2.7999 4.85741 2.7999 5.60001C2.7999 6.34262 3.0949 7.05481 3.62 7.57991C4.14511 8.10501 4.8573 8.40001 5.5999 8.40001C6.34251 8.40001 7.0547 8.10501 7.5798 7.57991C8.1049 7.05481 8.3999 6.34262 8.3999 5.60001C8.3999 4.85741 8.1049 4.14521 7.5798 3.62011C7.0547 3.09501 6.34251 2.80001 5.5999 2.80001ZM1.3999 5.60001C1.39982 4.939 1.55575 4.28731 1.85502 3.69793C2.15429 3.10855 2.58845 2.59813 3.12218 2.20818C3.65591 1.81823 4.27415 1.55976 4.9266 1.45379C5.57906 1.34783 6.24732 1.39736 6.87703 1.59836C7.50673 1.79935 8.08011 2.14614 8.55052 2.61052C9.02093 3.07489 9.37509 3.64374 9.5842 4.2708C9.79331 4.89786 9.85146 5.56543 9.75393 6.2192C9.6564 6.87297 9.40593 7.49449 9.0229 8.03321L12.3948 11.4051C12.5223 11.5371 12.5929 11.714 12.5913 11.8975C12.5897 12.081 12.5161 12.2566 12.3863 12.3864C12.2565 12.5162 12.0809 12.5898 11.8974 12.5914C11.7138 12.593 11.537 12.5224 11.405 12.3949L8.0338 9.02371C7.40546 9.47051 6.66625 9.73572 5.89718 9.79029C5.12811 9.84487 4.35885 9.68669 3.67371 9.33309C2.98857 8.9795 2.41398 8.44413 2.01291 7.78566C1.61183 7.12718 1.39975 6.37102 1.3999 5.60001Z" fill="white"/>
</svg>
