<svg width="21" height="22" viewBox="0 0 21 22" fill="none" xmlns="http://www.w3.org/2000/svg">
<path d="M2.625 2.75H4.375L4.725 4.58333M4.725 4.58333H18.375L14.875 11.9167H6.125M4.725 4.58333L6.125 11.9167M6.125 11.9167L4.11862 14.0186C3.56737 14.5961 3.95763 15.5833 4.73725 15.5833H14.875M14.875 15.5833C14.4109 15.5833 13.9658 15.7765 13.6376 16.1203C13.3094 16.4641 13.125 16.9304 13.125 17.4167C13.125 17.9029 13.3094 18.3692 13.6376 18.713C13.9658 19.0568 14.4109 19.25 14.875 19.25C15.3391 19.25 15.7842 19.0568 16.1124 18.713C16.4406 18.3692 16.625 17.9029 16.625 17.4167C16.625 16.9304 16.4406 16.4641 16.1124 16.1203C15.7842 15.7765 15.3391 15.5833 14.875 15.5833ZM7.875 17.4167C7.875 17.9029 7.69063 18.3692 7.36244 18.713C7.03425 19.0568 6.58913 19.25 6.125 19.25C5.66087 19.25 5.21575 19.0568 4.88756 18.713C4.55937 18.3692 4.375 17.9029 4.375 17.4167C4.375 16.9304 4.55937 16.4641 4.88756 16.1203C5.21575 15.7765 5.66087 15.5833 6.125 15.5833C6.58913 15.5833 7.03425 15.7765 7.36244 16.1203C7.69063 16.4641 7.875 16.9304 7.875 17.4167Z" stroke="#607D8B" stroke-width="2" stroke-linecap="round" stroke-linejoin="round"/>
</svg>
